<mxfile host="app.diagrams.net" modified="2024-02-08T16:25:47.429Z" agent="Mozilla/5.0 (Windows NT 10.0; Win64; x64) AppleWebKit/537.36 (KHTML, like Gecko) Chrome/120.0.0.0 Safari/537.36 OPR/106.0.0.0" etag="q_5lmJcUKRAFSIZ5ToUu" version="23.1.2" type="github">
  <diagram id="C5RBs43oDa-KdzZeNtuy" name="Page-1">
    <mxGraphModel dx="1393" dy="789" grid="1" gridSize="10" guides="1" tooltips="1" connect="1" arrows="1" fold="1" page="1" pageScale="1" pageWidth="827" pageHeight="1169" math="0" shadow="0">
      <root>
        <mxCell id="WIyWlLk6GJQsqaUBKTNV-0" />
        <mxCell id="WIyWlLk6GJQsqaUBKTNV-1" parent="WIyWlLk6GJQsqaUBKTNV-0" />
        <mxCell id="WIyWlLk6GJQsqaUBKTNV-2" value="" style="rounded=0;html=1;jettySize=auto;orthogonalLoop=1;fontSize=11;endArrow=block;endFill=0;endSize=8;strokeWidth=1;shadow=0;labelBackgroundColor=none;edgeStyle=orthogonalEdgeStyle;" parent="WIyWlLk6GJQsqaUBKTNV-1" source="WIyWlLk6GJQsqaUBKTNV-3" edge="1">
          <mxGeometry relative="1" as="geometry">
            <mxPoint x="400" y="110" as="targetPoint" />
          </mxGeometry>
        </mxCell>
        <mxCell id="WIyWlLk6GJQsqaUBKTNV-3" value="Start" style="rounded=1;whiteSpace=wrap;html=1;fontSize=12;glass=0;strokeWidth=1;shadow=0;" parent="WIyWlLk6GJQsqaUBKTNV-1" vertex="1">
          <mxGeometry x="340" y="20" width="120" height="40" as="geometry" />
        </mxCell>
        <mxCell id="WIyWlLk6GJQsqaUBKTNV-11" value="Welcome Page&amp;nbsp;" style="rounded=1;whiteSpace=wrap;html=1;fontSize=12;glass=0;strokeWidth=1;shadow=0;" parent="WIyWlLk6GJQsqaUBKTNV-1" vertex="1">
          <mxGeometry x="340" y="110" width="120" height="40" as="geometry" />
        </mxCell>
        <mxCell id="AAn4FDUfYzvQHadsMYfm-1" value="About Us Website Link" style="rounded=1;whiteSpace=wrap;html=1;" vertex="1" parent="WIyWlLk6GJQsqaUBKTNV-1">
          <mxGeometry x="30" y="190" width="150" height="40" as="geometry" />
        </mxCell>
        <mxCell id="AAn4FDUfYzvQHadsMYfm-3" value="" style="endArrow=classic;html=1;rounded=0;entryX=0.927;entryY=-0.1;entryDx=0;entryDy=0;entryPerimeter=0;" edge="1" parent="WIyWlLk6GJQsqaUBKTNV-1" target="AAn4FDUfYzvQHadsMYfm-1">
          <mxGeometry width="50" height="50" relative="1" as="geometry">
            <mxPoint x="340" y="130" as="sourcePoint" />
            <mxPoint x="280" y="190" as="targetPoint" />
          </mxGeometry>
        </mxCell>
        <mxCell id="AAn4FDUfYzvQHadsMYfm-21" value="" style="edgeStyle=orthogonalEdgeStyle;rounded=0;orthogonalLoop=1;jettySize=auto;html=1;" edge="1" parent="WIyWlLk6GJQsqaUBKTNV-1" source="AAn4FDUfYzvQHadsMYfm-4" target="AAn4FDUfYzvQHadsMYfm-20">
          <mxGeometry relative="1" as="geometry" />
        </mxCell>
        <mxCell id="AAn4FDUfYzvQHadsMYfm-4" value="Museum UI (Map)" style="rounded=1;whiteSpace=wrap;html=1;" vertex="1" parent="WIyWlLk6GJQsqaUBKTNV-1">
          <mxGeometry x="200" y="190" width="130" height="40" as="geometry" />
        </mxCell>
        <mxCell id="AAn4FDUfYzvQHadsMYfm-5" value="" style="endArrow=classic;html=1;rounded=0;entryX=0.592;entryY=0;entryDx=0;entryDy=0;entryPerimeter=0;exitX=0.117;exitY=1.025;exitDx=0;exitDy=0;exitPerimeter=0;" edge="1" parent="WIyWlLk6GJQsqaUBKTNV-1" source="WIyWlLk6GJQsqaUBKTNV-11" target="AAn4FDUfYzvQHadsMYfm-4">
          <mxGeometry width="50" height="50" relative="1" as="geometry">
            <mxPoint x="399.5" y="150" as="sourcePoint" />
            <mxPoint x="400" y="190" as="targetPoint" />
          </mxGeometry>
        </mxCell>
        <mxCell id="AAn4FDUfYzvQHadsMYfm-6" value="" style="endArrow=classic;html=1;rounded=0;" edge="1" parent="WIyWlLk6GJQsqaUBKTNV-1" target="AAn4FDUfYzvQHadsMYfm-7">
          <mxGeometry width="50" height="50" relative="1" as="geometry">
            <mxPoint x="460" y="130" as="sourcePoint" />
            <mxPoint x="540" y="190" as="targetPoint" />
          </mxGeometry>
        </mxCell>
        <mxCell id="AAn4FDUfYzvQHadsMYfm-7" value="Power of Play" style="rounded=1;whiteSpace=wrap;html=1;" vertex="1" parent="WIyWlLk6GJQsqaUBKTNV-1">
          <mxGeometry x="520" y="190" width="110" height="40" as="geometry" />
        </mxCell>
        <mxCell id="AAn4FDUfYzvQHadsMYfm-23" value="" style="edgeStyle=orthogonalEdgeStyle;rounded=0;orthogonalLoop=1;jettySize=auto;html=1;entryX=0.838;entryY=1.05;entryDx=0;entryDy=0;entryPerimeter=0;" edge="1" parent="WIyWlLk6GJQsqaUBKTNV-1" target="AAn4FDUfYzvQHadsMYfm-8">
          <mxGeometry relative="1" as="geometry">
            <mxPoint x="430" y="220" as="sourcePoint" />
            <mxPoint x="470" y="250" as="targetPoint" />
            <Array as="points">
              <mxPoint x="430" y="304" />
              <mxPoint x="469" y="304" />
            </Array>
          </mxGeometry>
        </mxCell>
        <mxCell id="AAn4FDUfYzvQHadsMYfm-24" value="No" style="edgeLabel;html=1;align=center;verticalAlign=middle;resizable=0;points=[];" vertex="1" connectable="0" parent="AAn4FDUfYzvQHadsMYfm-23">
          <mxGeometry x="0.5485" y="3" relative="1" as="geometry">
            <mxPoint x="4" as="offset" />
          </mxGeometry>
        </mxCell>
        <mxCell id="AAn4FDUfYzvQHadsMYfm-8" value="Exhibit Search Function" style="rounded=1;whiteSpace=wrap;html=1;" vertex="1" parent="WIyWlLk6GJQsqaUBKTNV-1">
          <mxGeometry x="360" y="190" width="130" height="40" as="geometry" />
        </mxCell>
        <mxCell id="AAn4FDUfYzvQHadsMYfm-9" value="" style="endArrow=classic;html=1;rounded=0;entryX=0.185;entryY=0.025;entryDx=0;entryDy=0;entryPerimeter=0;" edge="1" parent="WIyWlLk6GJQsqaUBKTNV-1" target="AAn4FDUfYzvQHadsMYfm-8">
          <mxGeometry width="50" height="50" relative="1" as="geometry">
            <mxPoint x="460" y="150" as="sourcePoint" />
            <mxPoint x="500" y="210" as="targetPoint" />
          </mxGeometry>
        </mxCell>
        <mxCell id="AAn4FDUfYzvQHadsMYfm-10" value="Settings Page" style="rounded=1;whiteSpace=wrap;html=1;" vertex="1" parent="WIyWlLk6GJQsqaUBKTNV-1">
          <mxGeometry x="680" y="112.5" width="130" height="35" as="geometry" />
        </mxCell>
        <mxCell id="AAn4FDUfYzvQHadsMYfm-11" value="" style="endArrow=classic;html=1;rounded=0;entryX=0;entryY=0.25;entryDx=0;entryDy=0;" edge="1" parent="WIyWlLk6GJQsqaUBKTNV-1" target="AAn4FDUfYzvQHadsMYfm-10">
          <mxGeometry width="50" height="50" relative="1" as="geometry">
            <mxPoint x="460" y="120" as="sourcePoint" />
            <mxPoint x="510" y="70" as="targetPoint" />
          </mxGeometry>
        </mxCell>
        <mxCell id="AAn4FDUfYzvQHadsMYfm-12" value="" style="endArrow=classic;html=1;rounded=0;entryX=0.5;entryY=0;entryDx=0;entryDy=0;" edge="1" parent="WIyWlLk6GJQsqaUBKTNV-1" target="AAn4FDUfYzvQHadsMYfm-13">
          <mxGeometry width="50" height="50" relative="1" as="geometry">
            <mxPoint x="750" y="147.5" as="sourcePoint" />
            <mxPoint x="750" y="207.5" as="targetPoint" />
          </mxGeometry>
        </mxCell>
        <mxCell id="AAn4FDUfYzvQHadsMYfm-16" value="" style="edgeStyle=orthogonalEdgeStyle;rounded=0;orthogonalLoop=1;jettySize=auto;html=1;" edge="1" parent="WIyWlLk6GJQsqaUBKTNV-1" source="AAn4FDUfYzvQHadsMYfm-13" target="AAn4FDUfYzvQHadsMYfm-15">
          <mxGeometry relative="1" as="geometry" />
        </mxCell>
        <mxCell id="AAn4FDUfYzvQHadsMYfm-13" value="Are you an Admin?" style="rhombus;whiteSpace=wrap;html=1;" vertex="1" parent="WIyWlLk6GJQsqaUBKTNV-1">
          <mxGeometry x="710" y="190" width="80" height="80" as="geometry" />
        </mxCell>
        <mxCell id="AAn4FDUfYzvQHadsMYfm-29" value="" style="edgeStyle=orthogonalEdgeStyle;rounded=0;orthogonalLoop=1;jettySize=auto;html=1;entryX=1;entryY=0.5;entryDx=0;entryDy=0;" edge="1" parent="WIyWlLk6GJQsqaUBKTNV-1" source="AAn4FDUfYzvQHadsMYfm-15" target="AAn4FDUfYzvQHadsMYfm-22">
          <mxGeometry relative="1" as="geometry">
            <mxPoint x="620" y="350" as="targetPoint" />
          </mxGeometry>
        </mxCell>
        <mxCell id="AAn4FDUfYzvQHadsMYfm-15" value="Admin Log In + Privledges" style="rounded=1;whiteSpace=wrap;html=1;" vertex="1" parent="WIyWlLk6GJQsqaUBKTNV-1">
          <mxGeometry x="700" y="320" width="100" height="40" as="geometry" />
        </mxCell>
        <mxCell id="AAn4FDUfYzvQHadsMYfm-26" value="" style="edgeStyle=orthogonalEdgeStyle;rounded=0;orthogonalLoop=1;jettySize=auto;html=1;" edge="1" parent="WIyWlLk6GJQsqaUBKTNV-1" source="AAn4FDUfYzvQHadsMYfm-20" target="AAn4FDUfYzvQHadsMYfm-25">
          <mxGeometry relative="1" as="geometry" />
        </mxCell>
        <mxCell id="AAn4FDUfYzvQHadsMYfm-20" value="Tap on desired exhibit" style="rhombus;whiteSpace=wrap;html=1;" vertex="1" parent="WIyWlLk6GJQsqaUBKTNV-1">
          <mxGeometry x="213.75" y="290" width="102.5" height="100" as="geometry" />
        </mxCell>
        <mxCell id="AAn4FDUfYzvQHadsMYfm-27" value="" style="edgeStyle=orthogonalEdgeStyle;rounded=0;orthogonalLoop=1;jettySize=auto;html=1;" edge="1" parent="WIyWlLk6GJQsqaUBKTNV-1" source="AAn4FDUfYzvQHadsMYfm-22" target="AAn4FDUfYzvQHadsMYfm-25">
          <mxGeometry relative="1" as="geometry" />
        </mxCell>
        <mxCell id="AAn4FDUfYzvQHadsMYfm-22" value="Type Exhibit - Does it exist?" style="rhombus;whiteSpace=wrap;html=1;" vertex="1" parent="WIyWlLk6GJQsqaUBKTNV-1">
          <mxGeometry x="372.5" y="290" width="105" height="100" as="geometry" />
        </mxCell>
        <mxCell id="AAn4FDUfYzvQHadsMYfm-25" value="Loaded Exhibit Page" style="rounded=1;whiteSpace=wrap;html=1;" vertex="1" parent="WIyWlLk6GJQsqaUBKTNV-1">
          <mxGeometry x="280" y="470" width="120" height="60" as="geometry" />
        </mxCell>
      </root>
    </mxGraphModel>
  </diagram>
</mxfile>
